<?xml version="1.0" encoding="utf-8"?>

<!-- Uploaded to: SVG Repo, www.svgrepo.com, Generator: SVG Repo Mixer Tools -->
<svg version="1.1" id="Icons" xmlns="http://www.w3.org/2000/svg" xmlns:xlink="http://www.w3.org/1999/xlink" 
	 viewBox="0 0 32 32" xml:space="preserve">
<style type="text/css">
	.st0{fill:none;stroke:#ff8ad8;stroke-width:3;stroke-linecap:round;stroke-linejoin:round;stroke-miterlimit:10;}
</style>
<path class="st0" d="M9.7,30h15.3c2.3,0,4.1-1.8,4.1-4.1v0c0-1.7-1.1-3.3-2.8-3.9l-14.4-5C7.5,15.6,3,18.8,3,23.3v0
	C3,27,6,30,9.7,30z"/>
<circle class="st0" cx="14" cy="24" r="3"/>
<path class="st0" d="M12,9H8.8C7,9,5.3,8.3,4,7l0,0"/>
<line class="st0" x1="9" y1="9" x2="13" y2="17"/>
<line class="st0" x1="26" y1="4" x2="22" y2="20"/>
<path class="st0" d="M21,5L21,5c3.1,0,6.1-1.5,8-4l0,0"/>
<line class="st0" x1="14" y1="24" x2="20" y2="24"/>
</svg>