<?xml version="1.0" encoding="iso-8859-1"?>
<!-- Uploaded to: SVG Repo, www.svgrepo.com, Generator: SVG Repo Mixer Tools -->
<svg fill="#ec8036" height="800px" width="800px" version="1.1" id="Layer_1" xmlns="http://www.w3.org/2000/svg" xmlns:xlink="http://www.w3.org/1999/xlink"
	 viewBox="0 0 512 512" xml:space="preserve">
<g>
	<g>
		<path d="M299.758,27.654c-9.503,0-18.679,2.786-26.536,8.056l-13.299,8.921l-8.251-13.725C240.041,11.554,219.642,0,197.106,0
			s-42.935,11.554-54.568,30.906l-8.251,13.725l-13.299-8.922c-7.856-5.27-17.031-8.056-26.535-8.056
			c-26.225,0-47.628,21.335-47.711,47.561v14.408h54.005c0,0,0,122.995,0,122.995c0,7.289,5.931,13.22,13.22,13.22
			s13.22-5.93,13.22-13.22V89.623h220.282V75.167C347.385,48.989,325.983,27.654,299.758,27.654z"/>
	</g>
</g>
<g>
	<g>
		<path d="M407.144,177.795H377.95h-30.476v-57.696H157.663v92.518c0,18.729-11.846,34.737-28.436,40.941l0.315,191.906
			l-15.238,0.024l-15.238,0.024L98.75,253.572c-13.276-4.948-23.522-16.173-27.1-30.05c-0.899-3.487-1.379-7.143-1.379-10.907
			v-92.518H46.739V512h300.735v-78.051h30.476h29.194c32.098,0,58.117-26.02,58.117-58.117v-139.92
			C465.26,203.815,439.241,177.795,407.144,177.795z M212.344,445.489h-30.476V186.611h15.238h15.238V445.489z M295.147,445.489
			h-30.476V186.611h15.238h15.238V445.489z M413.865,375.832c0,3.706-3.015,6.722-6.722,6.722h-29.194h-30.476V229.19h30.476h29.194
			c3.706,0,6.722,3.015,6.722,6.722V375.832z"/>
	</g>
</g>
</svg>