<?xml version="1.0" encoding="utf-8"?><!-- Uploaded to: SVG Repo, www.svgrepo.com, Generator: SVG Repo Mixer Tools -->
<svg width="800px" height="800px" viewBox="0 0 24 24" fill="none" xmlns="http://www.w3.org/2000/svg">
<path d="M11.9849 9V18M10.8482 9.5L11.9851 10.5L13.1218 9.5M10.8482 17.5L11.9851 16.5L13.1218 17.5M7.56886 11.25L16.4303 15.75M8.89826 11.925L7.5005 12.2545M8.89652 11.925L8.52199 10.6956M15.4766 16.3044L15.1021 15.075L16.4998 14.7457M16.4303 11.25L7.56886 15.75M8.90042 15.075L8.5259 16.3044M8.89826 15.0751L7.5005 14.7457M16.4998 12.2545L15.1021 11.925L15.4766 10.6956M15.0005 6C15.0005 5.06812 15.0005 4.60218 14.8483 4.23463C14.6453 3.74458 14.2559 3.35523 13.7659 3.15224C13.3983 3 12.9324 3 12.0005 3C11.0686 3 10.6027 3 10.2351 3.15224C9.74508 3.35523 9.35573 3.74458 9.15275 4.23463C9.00051 4.60218 9.0005 5.06812 9.0005 6M4.00051 6H20.0005L20.773 17.5871C20.8521 18.7738 20.8917 19.3672 20.6851 19.824C20.5036 20.2254 20.1946 20.5557 19.8061 20.7635C19.3641 21 18.7694 21 17.5801 21H6.42094C5.23161 21 4.63695 21 4.19489 20.7635C3.80641 20.5557 3.49742 20.2254 3.3159 19.824C3.10936 19.3672 3.14892 18.7738 3.22803 17.5871L4.00051 6Z" stroke="#2bbdf2" stroke-width="2" stroke-linecap="round" stroke-linejoin="round"/>
</svg>