<?xml version="1.0" encoding="utf-8"?>

<!DOCTYPE svg PUBLIC "-//W3C//DTD SVG 1.1//EN" "http://www.w3.org/Graphics/SVG/1.1/DTD/svg11.dtd">
<!-- Uploaded to: SVG Repo, www.svgrepo.com, Generator: SVG Repo Mixer Tools -->
<svg version="1.1" id="_x32_" xmlns="http://www.w3.org/2000/svg" xmlns:xlink="http://www.w3.org/1999/xlink" 
	 width="800px" height="800px" viewBox="0 0 512 512"  xml:space="preserve">
<style type="text/css">
<![CDATA[
	.st0{fill:#00b049;}
]]>
</style>
<g>
	<path class="st0" d="M440.781,203.438c1.188-6.375,1.781-12.781,1.781-19.125c0-45.875-29.094-85.984-71.813-100.625
		C354.859,33.969,308.953,0,256,0s-98.875,33.969-114.75,83.688c-42.734,14.625-71.813,54.75-71.813,100.625
		c0,6.344,0.594,12.75,1.766,19.125c-24.813,22.813-38.844,54.547-38.844,88.531c0,66.516,54.109,120.625,120.625,120.625
		c13.219,0,26.125-2.125,38.531-6.313c14.422,10.219,31.078,16.828,48.484,19.359V512h8h16h8v-86.359
		c17.406-2.531,34.063-9.141,48.484-19.359c12.391,4.188,25.313,6.313,38.531,6.313c66.516,0,120.625-54.109,120.625-120.625
		C479.641,257.984,465.594,226.25,440.781,203.438z M359.016,380.594c-12.094,0-23.828-2.406-34.922-7.156L315,369.531l-7.563,6.406
		c-12.313,10.438-27.516,16.844-43.438,18.469v-41.875l62.547-71.469L314.5,270.531L264,328.25v-58.938l50.438-57.656
		l-12.047-10.531L264,245v-90.344h-16v90.359l-38.406-43.891l-12.047,10.531L248,269.313v58.938l-50.5-57.719l-12.047,10.531
		L248,352.531v41.875c-15.938-1.625-31.125-8.031-43.453-18.469L197,369.531l-9.109,3.906c-11.078,4.75-22.828,7.156-34.906,7.156
		c-48.875,0-88.625-39.75-88.625-88.625c0-27.516,12.563-53.031,34.453-70l8.563-6.656l-2.984-10.406
		c-1.969-6.844-2.953-13.781-2.953-20.594c0-34.344,23.297-64.063,56.656-72.266l9.5-2.344l2.25-9.516
		C179.344,60.031,214.766,32,256,32s76.656,28.031,86.141,68.188l2.25,9.516l9.5,2.344c33.359,8.203,56.672,37.922,56.672,72.266
		c0,6.813-1,13.75-2.969,20.594l-2.984,10.406l8.563,6.656c21.906,16.969,34.469,42.484,34.469,70
		C447.641,340.844,407.875,380.594,359.016,380.594z"/>
</g>
</svg>