<?xml version="1.0" encoding="utf-8"?>

<!DOCTYPE svg PUBLIC "-//W3C//DTD SVG 1.1//EN" "http://www.w3.org/Graphics/SVG/1.1/DTD/svg11.dtd">
<!-- Uploaded to: SVG Repo, www.svgrepo.com, Generator: SVG Repo Mixer Tools -->
<svg version="1.1" id="_x32_" xmlns="http://www.w3.org/2000/svg" xmlns:xlink="http://www.w3.org/1999/xlink" 
	 width="800px" height="800px" viewBox="0 0 512 512"  xml:space="preserve">
<style type="text/css">
<![CDATA[
	.st0{fill:#00b049;}
]]>
</style>
<g>
	<path class="st0" d="M256,432.063c-13.594,0-27-2.281-39.75-6.5V512h79.5v-86.438C283,429.781,269.594,432.063,256,432.063z"/>
	<path class="st0" d="M419.781,198.438c3.609-9.734,5.688-20.219,5.688-31.219c0-42.219-29.141-77.563-68.406-87.219
		C346.234,34.156,305.156,0,256,0s-90.234,34.156-101.063,80c-39.25,9.656-68.406,45-68.406,87.219c0,11,2.063,21.469,5.672,31.219
		c-25.734,18.906-42.5,49.313-42.5,83.719c0,57.406,46.516,103.938,103.938,103.938c14.547,0,28.391-3,40.953-8.406
		c12.734,10.813,28.344,18.281,45.5,21.188v-49.969l-72.031-72.063c-6.219-6.203-6.219-16.266,0-22.469
		c6.203-6.219,16.266-6.219,22.469,0l49.563,49.547v-54.578l-49.406-49.406c-4.609-4.625-4.609-12.094,0-16.703
		s12.094-4.609,16.688,0l32.719,32.703v-59.922c0-8.781,7.125-15.891,15.906-15.891s15.906,7.109,15.906,15.891v59.922
		l32.719-32.703c4.594-4.609,12.078-4.609,16.688,0s4.609,12.078,0,16.703l-49.406,49.406v54.578l49.563-49.547
		c6.203-6.219,16.266-6.219,22.469,0c6.219,6.203,6.219,16.266,0,22.469l-72.031,72.063v49.969
		c17.156-2.906,32.766-10.375,45.5-21.172c12.563,5.391,26.391,8.391,40.938,8.391c57.422,0,103.953-46.531,103.953-103.938
		C462.297,247.75,445.531,217.344,419.781,198.438z"/>
</g>
</svg>